# xmcd CD database file
#
# Track frame offsets:
#	150
#	12910
#	31380
#	43850
#	62060
#	74687
#	87720
#	101257
#	117392
#	136037
#	155117
#	164510
#	181762
#	199355
#	212490
#	227085
#	244245
#	259397
#	273207
#
# Disc length: 3813 seconds
#
# Revision: 1
# Processed by: cddbd v1.5.1PL0 Copyright (c) Steve Scherf et al.
# Submitted via: CDex 1.51
#
DISCID=190ee313
DTITLE=Carmen McRae - Carmen McRae's Finest Hour
DYEAR=2000
DGENRE=Jazz
TTITLE0=I Was Doing All Right
TTITLE1=How Long Has This Been Going On?
TTITLE2=Namely You
TTITLE3=Dream of Life
TTITLE4=The Eagle and Me
TTITLE5=Do You Know Why?
TTITLE6=Whatever Lola Wants
TTITLE7=When Your Lover Has Gone
TTITLE8=Weak for the Man
TTITLE9=Mad About the Boy
TTITLE10=Love Is a Simple Thing
TTITLE11=I Wants to Stay Here
TTITLE12=Baltimore Oriole
TTITLE13=Invitation
TTITLE14=Something to Live For
TTITLE15=Midnight Sun
TTITLE16=Georgia Rose
TTITLE17=Love Is Here to Stay
TTITLE18=Perdido
EXTD=YEAR: 2000
EXTT0=
EXTT1=
EXTT2=
EXTT3=
EXTT4=
EXTT5=
EXTT6=
EXTT7=
EXTT8=
EXTT9=
EXTT10=
EXTT11=
EXTT12=
EXTT13=
EXTT14=
EXTT15=
EXTT16=
EXTT17=
EXTT18=
PLAYORDER=
